<?xml version="1.0" encoding="UTF-8"?>
<svg width="256px" height="256px" viewBox="0 0 256 256" version="1.1" xmlns="http://www.w3.org/2000/svg" xmlns:xlink="http://www.w3.org/1999/xlink">
    <!-- Generator: Sketch 42 (36781) - http://www.bohemiancoding.com/sketch -->
    <title>icon</title>
    <desc>Created with Sketch.</desc>
    <defs></defs>
    <g id="Page-1" stroke="none" stroke-width="1" fill="none" fill-rule="evenodd">
        <g id="sneacky-racoon" transform="translate(3.000000, 0.000000)" fill="#000000">
            <path d="M164.919649,111.217686 C161.294802,113.922552 157.73818,116.713785 154.252831,119.588337 C145.638622,113.108677 134.926332,109.268293 123.317073,109.268293 C112.212685,109.268293 101.928948,112.781914 93.5169825,118.758035 C90.3452095,115.973644 87.0352986,113.225688 83.5712247,110.530864 C101.473547,105.113068 113.399512,92.2336616 110.435747,81.1727397 C107.37175,69.7377482 89.5541541,64.5765181 70.6390326,69.6448097 C58.6980344,72.8443905 49.1742296,79.3558754 44.5454407,86.5994978 C35.0784591,82.1502488 24.750069,78.1490812 13.4232726,74.7387279 C20.2999354,61.1722464 29.5807433,49.0305467 40.7051562,38.8741685 C40.625632,37.3733435 40.5853659,35.8621058 40.5853659,34.3414634 C40.5853659,22.2274143 43.1407993,10.7102186 47.7420094,0.299533088 C61.3823357,1.44632767 74.0984528,5.8411988 85.1142921,12.7080778 C97.604322,8.51561864 110.975892,6.24390244 124.878049,6.24390244 C138.600906,6.24390244 151.806773,8.45739849 164.158091,12.5468307 C175.764216,6.52460522 188.948156,3.12195122 202.926829,3.12195122 C203.018096,3.12195122 203.109329,3.12209627 203.200528,3.12238615 C207.05245,12.7775662 209.170732,23.3121392 209.170732,34.3414634 C209.170732,35.8621058 209.130466,37.3733435 209.050941,38.8741685 C219.707085,48.603026 228.671566,60.1535834 235.451692,73.0331487 C223.98943,77.227021 212.880592,82.1543869 202.182013,87.7584107 C197.862011,80.056244 187.967911,73.0141712 175.393283,69.6448097 C156.478161,64.5765181 138.660566,69.7377482 135.596569,81.1727397 C132.532572,92.6077312 145.382448,105.986285 164.297569,111.054577 C164.505067,111.110176 164.712433,111.164544 164.919649,111.217686 L164.919649,111.217686 Z" id="head"></path>
            <path d="M139.756016,132.413672 C133.995624,137.876927 128.469149,143.584404 123.193176,149.519523 C118.336673,143.754056 113.146702,137.889921 107.487768,132.068287 C112.180468,129.475636 117.576444,128 123.317073,128 C129.307941,128 134.923454,129.607089 139.756016,132.413672 L139.756016,132.413672 Z" id="nose"></path>
            <path d="M249.756098,131.121951 C249.756098,159.744187 240.126752,186.117368 223.930926,207.17863 C179.22678,224.466913 160.656447,195.8303 131.453881,159.573877 C160.300305,125.7525 198.013354,99.723534 240.995941,85.0840671 C246.648907,99.330028 249.756098,114.863128 249.756098,131.121951 Z" id="body"></path>
            <path d="M3.65510026,161.236034 C1.2671003,151.591421 0,141.50466 0,131.121951 C0,115.751762 2.77682245,101.030134 7.8561654,87.4313703 C29.1874761,93.9210434 46.9625228,102.510767 62.106068,112.237069 C37.8927934,122.120095 17.4769399,139.385282 3.65510026,161.236034 Z" id="tail-end"></path>
            <path d="M19.1279729,197.571466 C29.1703576,213.519689 42.7206396,227.0368 58.6959849,237.039966 C70.0674068,206.604818 91.8062483,181.226415 119.615726,165.201543 C111.277174,155.126683 101.983351,144.665114 90.9954443,134.586575 C59.5290249,145.257064 33.6948275,168.130402 19.1279729,197.571466 L19.1279729,197.571466 Z" id="tail-middle"></path>
            <path d="M141.02166,191.718947 C160.955146,215.769485 178.839895,231.362287 210.353031,222.163979 C188.012235,243.146896 157.946143,256 124.878049,256 C112.761258,256 101.047525,254.274302 89.969221,251.055275 C100.031602,226.114901 118.114311,205.270893 141.02166,191.718947 L141.02166,191.718947 Z" id="tail-start"></path>
            <ellipse id="right-eye" cx="84.2926829" cy="93.6585366" rx="6.24390244" ry="6.24390244"></ellipse>
            <ellipse id="left-eye" cx="162.341463" cy="93.6585366" rx="6.24390244" ry="6.24390244"></ellipse>
        </g>
    </g>
</svg>